<?xml version="1.0" encoding="iso-8859-1"?>
<!-- Generator: Adobe Illustrator 19.0.0, SVG Export Plug-In . SVG Version: 6.00 Build 0)  -->
<svg version="1.1" id="Capa_1" xmlns="http://www.w3.org/2000/svg" xmlns:xlink="http://www.w3.org/1999/xlink" x="0px" y="0px"
	 viewBox="0 0 490 490" style="enable-background:new 0 0 490 490;" xml:space="preserve">
<g id="line_40_">
	<path d="M114.021,162.231c-45.706,0-82.761,37.055-82.761,82.762s37.055,82.761,82.761,82.761c21.33,0,40.562-8.284,55.23-21.529
		l127.335,78.872c-1.975,7.089-3.384,14.424-3.384,22.141c0,45.706,37.055,82.762,82.762,82.762s82.761-37.055,82.761-82.762
		s-37.055-82.761-82.761-82.761c-21.314,0-40.562,8.284-55.23,21.529l-127.335-78.872c1.975-7.09,3.384-14.424,3.384-22.141
		c0-7.733-1.393-15.052-3.384-22.141l127.35-78.857c14.669,13.245,33.916,21.529,55.23,21.529c45.706,0,82.762-37.055,82.762-82.761
		C458.725,37.055,421.685,0,375.979,0c-45.706,0-82.762,37.055-82.762,82.761c0,7.717,1.393,15.052,3.384,22.141l-127.335,78.872
		C154.583,170.53,135.351,162.231,114.021,162.231z M165.653,249.954c-1.592,16.506-10.719,30.731-24.086,39.122
		c-8.008,5.022-17.41,8.054-27.546,8.054c-28.741,0-52.137-23.381-52.137-52.137c0-28.756,23.381-52.137,52.137-52.137
		c10.137,0,19.538,3.032,27.546,8.054c13.367,8.391,22.493,22.616,24.086,39.107c0.153,1.654,0.505,3.262,0.505,4.961
		C166.158,246.692,165.822,248.3,165.653,249.954z M324.347,402.277c1.592-16.506,10.719-30.731,24.086-39.122
		c8.008-5.022,17.41-8.054,27.546-8.054c28.741,0,52.137,23.382,52.137,52.137c0,28.756-23.397,52.122-52.137,52.122
		c-28.741,0-52.137-23.381-52.137-52.137C323.842,405.524,324.178,403.931,324.347,402.277z M375.979,30.624
		c28.741,0,52.137,23.381,52.137,52.137s-23.381,52.138-52.137,52.138c-10.137,0-19.523-3.032-27.546-8.054
		c-13.367-8.376-22.493-22.616-24.086-39.122c-0.153-1.654-0.505-3.262-0.505-4.961C323.842,54.006,347.223,30.624,375.979,30.624z"
		/>
</g>
<g>
</g>
<g>
</g>
<g>
</g>
<g>
</g>
<g>
</g>
<g>
</g>
<g>
</g>
<g>
</g>
<g>
</g>
<g>
</g>
<g>
</g>
<g>
</g>
<g>
</g>
<g>
</g>
<g>
</g>
</svg>
