<?xml version='1.0' encoding='utf-8'?>
<!DOCTYPE svg PUBLIC '-//W3C//DTD SVG 1.1//EN' 'http://www.w3.org/Graphics/SVG/1.1/DTD/svg11.dtd'>
<svg version="1.1" xmlns="http://www.w3.org/2000/svg" viewBox="0 0 512 512" xmlns:xlink="http://www.w3.org/1999/xlink" enable-background="new 0 0 512 512">
  <g>
    <g>
      <path d="M480.6,11H31.4C20.1,11,11,20.1,11,31.4v345.7c0,11.3,9.1,20.4,20.4,20.4h117.2v62.6H79.5c-11.3,0-20.4,9.1-20.4,20.4    S68.2,501,79.5,501h353c11.3,0,20.4-9.1,20.4-20.4s-9.1-20.4-20.4-20.4h-69.1v-62.6h117.2c11.3,0,20.4-9.1,20.4-20.4V31.4    C501,20.1,491.9,11,480.6,11z M189.4,460.2v-62.6h133.2v62.6H189.4z M460.2,356.7H51.8V51.8h408.3V356.7z"/>
      <path d="m185.7,308.5c9.7,4.6 17.7,1 21.2-1.5l121.8-86c5.4-3.8 8.6-10 8.6-16.7 0-6.6-3.2-12.9-8.6-16.7l-121.8-86c-6.2-4.4-14.4-5-21.2-1.5-6.8,3.5-11,10.5-11,18.1v172.1c0,7.7 4.1,14.9 11,18.2zm29.8-150.8l66,46.6-66,46.6v-93.2z"/>
    </g>
  </g>
</svg>
